<svg width="549" height="445" viewBox="0 0 549 445" fill="none" xmlns="http://www.w3.org/2000/svg">
<path d="M35.0003 246.2C46.7103 266.51 68.3904 279.01 91.7304 277.68H177.61C201.26 279.01 222.94 266.51 234.61 246.2L277.55 171.81C286.65 156.01 288.37 138.59 282.79 120.81C281.893 118.004 280.127 115.556 277.747 113.819C275.367 112.083 272.496 111.148 269.55 111.15C245.09 111.15 184.71 110.99 156.04 111C154.217 110.992 152.41 111.345 150.723 112.04C149.037 112.734 147.505 113.755 146.215 115.045C144.926 116.334 143.904 117.866 143.21 119.553C142.516 121.239 142.162 123.046 142.17 124.87V152.77C142.17 156.483 143.645 160.044 146.271 162.669C148.896 165.295 152.457 166.77 156.17 166.77H191.67C194.144 166.773 196.573 167.432 198.709 168.679C200.845 169.926 202.613 171.716 203.833 173.869C205.052 176.021 205.679 178.458 205.651 180.931C205.622 183.405 204.939 185.826 203.67 187.95L194.9 202.49C191.417 208.535 186.401 213.555 180.357 217.042C174.314 220.529 167.458 222.36 160.48 222.35H108.71C101.746 222.343 94.9069 220.502 88.8803 217.012C82.8538 213.522 77.8527 208.507 74.3803 202.47L57.3804 173.63C56.1472 171.542 54.393 169.811 52.2894 168.604C50.1859 167.398 47.8051 166.759 45.3804 166.75H13.9403C11.5025 166.76 9.10969 167.407 6.99861 168.626C4.88752 169.845 3.13135 171.595 1.90394 173.701C0.676527 175.807 0.020392 178.198 0.000467697 180.635C-0.0194566 183.073 0.597533 185.474 1.79035 187.6L35.0003 246.2ZM78.5903 69.2C80.9771 65.0599 84.412 61.6215 88.5497 59.2306C92.6873 56.8396 97.3816 55.5805 102.16 55.58H168.35C173.122 55.5815 177.81 56.8403 181.941 59.2296C186.071 61.6188 189.5 65.0543 191.88 69.19L200.1 83.09C201.322 85.2303 203.087 87.0101 205.217 88.2498C207.347 89.4894 209.766 90.1449 212.23 90.15H244.18C246.626 90.1387 249.025 89.4872 251.14 88.2604C253.255 87.0335 255.012 85.274 256.236 83.1571C257.46 81.0402 258.108 78.6396 258.116 76.1944C258.124 73.7492 257.491 71.3446 256.28 69.22L235.06 32.89C229.299 22.8967 221.008 14.5962 211.022 8.82275C201.036 3.04932 189.706 0.00644748 178.17 0H92.3004C80.765 0.00543381 69.4344 3.04788 59.4479 8.82141C49.4614 14.5949 41.171 22.896 35.4104 32.89L1.89036 90.41C0.664295 92.5336 0.0174645 94.9419 0.0146279 97.394C0.0117912 99.846 0.653037 102.256 1.87419 104.382C3.09534 106.509 4.85355 108.277 6.97288 109.51C9.09221 110.744 11.4983 111.399 13.9504 111.41H45.8704C48.2971 111.399 50.6791 110.756 52.7828 109.547C54.8865 108.337 56.6397 106.601 57.8704 104.51L78.5903 69.2Z" fill="#F9A11B"/>
<path d="M540.561 273.7C546.042 283.118 548.953 293.81 549.004 304.706C549.055 315.603 546.244 326.322 540.851 335.79L497.091 412.57C491.712 422.028 483.936 429.901 474.545 435.396C465.154 440.891 454.481 443.814 443.601 443.87L355.391 444.29C344.508 444.335 333.805 441.511 324.362 436.102C314.918 430.693 307.068 422.89 301.601 413.48L257.151 337.15C251.667 327.731 248.754 317.037 248.703 306.139C248.652 295.24 251.465 284.52 256.861 275.05L300.611 198.28C311.611 179.01 331.981 166.66 354.111 166.56H442.321C453.201 166.516 463.9 169.341 473.34 174.75C482.78 180.159 490.627 187.961 496.091 197.37L540.561 273.7ZM489.041 388.52V222.02C489.035 218.343 487.572 214.818 484.972 212.218C482.372 209.618 478.848 208.155 475.171 208.15H447.421C443.74 208.153 440.212 209.616 437.609 212.218C435.007 214.821 433.543 218.35 433.541 222.03V263.65C433.546 265.473 433.191 267.28 432.496 268.966C431.801 270.651 430.78 272.183 429.491 273.473C428.202 274.763 426.671 275.785 424.986 276.481C423.3 277.178 421.494 277.534 419.671 277.53H378.041C376.217 277.534 374.411 277.178 372.726 276.481C371.041 275.785 369.51 274.763 368.221 273.473C366.932 272.183 365.911 270.651 365.216 268.966C364.521 267.28 364.166 265.473 364.171 263.65V222.02C364.171 214.48 359.231 208.14 352.351 208.14H322.481C320.659 208.133 318.853 208.488 317.169 209.184C315.485 209.88 313.955 210.903 312.669 212.194C311.383 213.485 310.365 215.018 309.676 216.704C308.986 218.391 308.638 220.198 308.651 222.02V388.53C308.639 390.351 308.988 392.156 309.679 393.841C310.369 395.526 311.387 397.057 312.673 398.346C313.959 399.635 315.488 400.657 317.172 401.351C318.855 402.045 320.66 402.398 322.481 402.39H350.271C353.949 402.387 357.477 400.926 360.079 398.325C362.681 395.725 364.145 392.199 364.151 388.52V346.89C364.145 345.068 364.501 343.262 365.196 341.577C365.891 339.893 366.913 338.362 368.202 337.074C369.491 335.786 371.022 334.766 372.707 334.071C374.393 333.377 376.198 333.023 378.021 333.03H419.651C421.468 333.023 423.269 333.375 424.95 334.066C426.631 334.756 428.16 335.771 429.448 337.053C430.737 338.335 431.759 339.858 432.458 341.536C433.157 343.214 433.518 345.013 433.521 346.83V388.52C433.517 390.344 433.873 392.152 434.569 393.838C435.265 395.524 436.287 397.057 437.577 398.347C438.866 399.637 440.398 400.661 442.084 401.358C443.77 402.055 445.576 402.413 447.401 402.41H475.151C476.977 402.418 478.787 402.064 480.476 401.369C482.164 400.674 483.699 399.651 484.99 398.359C486.282 397.068 487.304 395.534 488 393.845C488.695 392.156 489.049 390.346 489.041 388.52Z" fill="#F9A11B"/>
</svg>
