<svg width="958" height="232" viewBox="0 0 958 232" fill="none" xmlns="http://www.w3.org/2000/svg">
<path d="M313.787 151.03L339.597 86.1H353.117L378.737 151.03H362.737L350.347 118.1C349.907 116.8 349.427 115.41 348.907 113.93C348.377 112.44 347.907 110.93 347.367 109.29C346.827 107.65 346.367 106.14 345.967 104.65C345.567 103.16 345.157 101.78 344.847 100.48L347.547 100.39C347.177 101.93 346.777 103.45 346.337 104.93C345.897 106.41 345.437 107.93 344.947 109.38C344.457 110.83 343.947 112.38 343.407 113.79C342.867 115.2 342.337 116.74 341.777 118.29L329.477 151.03H313.787ZM326.087 138.6L331.087 126.54H360.937L365.937 138.6H326.087Z" fill="#F9A11B"/>
<path d="M386.837 151.03V86.1H402.777V137.02H431.847V151.02L386.837 151.03Z" fill="#F9A11B"/>
<path d="M472.097 151.95C467.277 152.023 462.488 151.174 457.987 149.45C453.927 147.883 450.231 145.501 447.127 142.45C444.079 139.417 441.695 135.784 440.127 131.78C438.483 127.523 437.661 122.993 437.707 118.43C437.66 113.846 438.548 109.3 440.317 105.07C442.011 101.061 444.497 97.4351 447.627 94.41C450.844 91.3309 454.65 88.933 458.817 87.36C463.357 85.6501 468.176 84.8023 473.027 84.86C479.673 84.8319 486.2 86.627 491.897 90.05C494.358 91.5158 496.572 93.362 498.457 95.52L488.677 105.72C486.551 103.681 484.113 101.993 481.457 100.72C478.722 99.4833 475.748 98.8653 472.747 98.91C470.205 98.8838 467.684 99.3737 465.337 100.35C463.079 101.286 461.037 102.674 459.337 104.43C457.602 106.216 456.242 108.33 455.337 110.65C454.424 113.123 453.983 115.745 454.037 118.38C454.006 121.021 454.513 123.641 455.527 126.08C456.488 128.388 457.899 130.482 459.677 132.24C461.449 134.009 463.553 135.413 465.867 136.37C468.288 137.374 470.886 137.88 473.507 137.86C475.332 137.875 477.145 137.574 478.867 136.97C480.452 136.419 481.933 135.605 483.247 134.56C484.493 133.585 485.516 132.354 486.247 130.95C486.959 129.558 487.326 128.014 487.317 126.45V124.04L489.317 127.19H471.547V114.67H502.197C502.35 115.59 502.444 116.518 502.477 117.45C502.537 118.63 502.587 119.76 502.617 120.84C502.647 121.92 502.617 122.77 502.617 123.39C502.666 127.354 501.886 131.285 500.327 134.93C498.844 138.348 496.656 141.415 493.907 143.93C491.07 146.503 487.763 148.503 484.167 149.82C480.303 151.246 476.215 151.967 472.097 151.95Z" fill="#F9A11B"/>
<path d="M514.587 151.03V86.1H530.527V151.03H514.587ZM520.927 125.8V111.52H563.507V125.8H520.927ZM555.127 151.03V86.1H571.037V151.03H555.127Z" fill="#F9A11B"/>
<path d="M586.037 151.03V137.67H597.037V99.46H586.037V86.1H624.037V99.46H613.037V137.67H624.037V151.03H586.037Z" fill="#F9A11B"/>
<path d="M636.467 151.03V140.45L671.317 94.36L676.727 100.57H638.897V86.1H688.087V96.58L653.517 142.77L647.927 137.11H689.117V151.03H636.467Z" fill="#F9A11B"/>
<path d="M700.107 151.03V140.45L734.957 94.36L740.367 100.57H702.537V86.1H751.737V96.58L717.167 142.77L711.577 137.11H752.757V151.03H700.107Z" fill="#F9A11B"/>
<path d="M758.167 151.03L783.977 86.1H797.487L823.107 151.03H807.037L794.647 118.1C794.217 116.8 793.727 115.41 793.207 113.93C792.687 112.45 792.207 110.93 791.667 109.29C791.127 107.65 790.667 106.14 790.267 104.65C789.867 103.16 789.457 101.78 789.147 100.48L791.857 100.39C791.477 101.93 791.077 103.45 790.637 104.93C790.197 106.41 789.737 107.93 789.247 109.38C788.757 110.83 788.247 112.38 787.707 113.79C787.167 115.2 786.637 116.74 786.077 118.29L773.777 151.03H758.167ZM770.457 138.6L775.457 126.54H805.267L810.267 138.6H770.457Z" fill="#F9A11B"/>
<path d="M839.507 151.03L819.847 86.1H836.037L845.917 120.23C846.477 122.23 846.917 124.23 847.317 126.31C847.717 128.39 847.997 130.31 848.247 132.06C848.497 133.81 848.647 135.2 848.717 136.19L846.567 136.28C847.007 133.933 847.34 131.86 847.567 130.06C847.807 128.27 848.127 126.59 848.497 125.06C848.88 123.443 849.347 121.848 849.897 120.28L859.677 94.59H872.447L882.037 120.28C882.787 122.28 883.387 124.28 883.857 126.08C884.327 127.88 884.697 129.61 884.977 131.18C885.257 132.75 885.487 134.32 885.677 135.87L883.677 136.24C883.797 135.06 883.907 134.01 884.007 133.08C884.107 132.15 884.177 131.24 884.237 130.35C884.297 129.46 884.387 128.52 884.517 127.56C884.647 126.6 884.827 125.56 885.077 124.32C885.327 123.08 885.667 121.74 886.077 120.19L895.767 86.19H911.707L892.047 151.12H880.037L864.477 113.83L866.247 114.02L852.037 151.03H839.507Z" fill="#F9A11B"/>
<path d="M919.268 151.03V137.67H930.268V99.46H919.268V86.1H957.188V99.46H946.188V137.67H957.188V151.03H919.268Z" fill="#F9A11B"/>
<path d="M327.037 231.01L315.107 193.73H321.257L328.487 217.06C328.801 217.965 329.052 218.89 329.237 219.83C329.447 220.89 329.657 221.91 329.847 222.89C330.037 223.87 330.197 224.64 330.307 225.21L328.757 225.15C329.287 223.27 329.707 221.82 330.007 220.79L330.727 218.42C330.907 217.87 331.067 217.42 331.217 217.01L337.977 200.18H343.167L349.697 217.01C350.047 217.86 350.367 218.7 350.627 219.54C350.887 220.38 351.137 221.21 351.357 222.04C351.577 222.87 351.797 223.75 352.047 224.68L350.657 225.05C350.837 224.05 350.967 223.34 351.057 222.79C351.147 222.24 351.227 221.79 351.297 221.43C351.367 221.07 351.437 220.73 351.517 220.43C351.597 220.13 351.697 219.66 351.857 219.12C352.017 218.58 352.247 217.86 352.527 216.94L359.647 193.77H365.857L353.917 231.05H349.917L340.037 207.69L340.517 207.9L330.997 231.01H327.037Z" fill="#F9A11B"/>
<path d="M387.797 231.55C385.287 231.576 382.799 231.086 380.487 230.11C378.296 229.18 376.313 227.82 374.657 226.11C372.983 224.362 371.675 222.299 370.807 220.04C368.979 215.107 368.979 209.683 370.807 204.75C371.672 202.49 372.981 200.426 374.657 198.68C376.313 196.97 378.296 195.61 380.487 194.68C385.168 192.76 390.416 192.76 395.097 194.68C397.29 195.607 399.273 196.968 400.927 198.68C402.597 200.442 403.905 202.514 404.777 204.78C406.604 209.675 406.604 215.065 404.777 219.96C403.908 222.227 402.599 224.3 400.927 226.06C399.275 227.775 397.291 229.136 395.097 230.06C392.792 231.052 390.307 231.559 387.797 231.55ZM387.797 225.95C389.516 225.975 391.22 225.634 392.797 224.95C394.296 224.292 395.636 223.32 396.727 222.1C397.857 220.84 398.739 219.377 399.327 217.79C400.567 214.293 400.567 210.477 399.327 206.98C398.739 205.39 397.857 203.924 396.727 202.66C395.63 201.446 394.292 200.475 392.797 199.81C390.46 198.76 387.853 198.468 385.342 198.976C382.831 199.483 380.542 200.765 378.797 202.64C377.653 203.876 376.771 205.333 376.207 206.92C375.582 208.672 375.274 210.52 375.297 212.38C375.252 214.809 375.801 217.212 376.897 219.38C377.912 221.354 379.439 223.018 381.317 224.2C383.264 225.393 385.514 226.001 387.797 225.95Z" fill="#F9A11B"/>
<path d="M413.957 231.01V193.73H429.907C431.982 193.716 434.023 194.258 435.817 195.3C437.594 196.328 439.078 197.795 440.127 199.56C441.196 201.377 441.749 203.452 441.727 205.56C441.736 207.553 441.181 209.509 440.127 211.2C439.068 212.929 437.598 214.368 435.847 215.39C434.044 216.437 431.992 216.979 429.907 216.96H419.737V230.96L413.957 231.01ZM419.737 211.47H430.437C431.418 211.484 432.383 211.217 433.217 210.7C434.044 210.177 434.712 209.437 435.147 208.56C435.617 207.631 435.857 206.602 435.847 205.56C435.877 204.419 435.577 203.294 434.983 202.32C434.388 201.346 433.525 200.565 432.497 200.07C431.39 199.526 430.17 199.252 428.937 199.27H419.737V211.47ZM436.217 231.01L426.697 214.18L432.637 212.85L443.227 231.07L436.217 231.01Z" fill="#F9A11B"/>
<path d="M451.147 231.01V193.73H456.927V231.01H451.147ZM455.967 219.72L455.637 213.28L475.277 193.73H482.878L455.967 219.72ZM475.967 231.01L461.637 211.95L465.917 208.27L483.197 231.01H475.967Z" fill="#F9A11B"/>
<path d="M501.338 231.55C498.527 231.607 495.744 230.983 493.228 229.73C490.81 228.444 488.748 226.578 487.228 224.3L491.228 219.78C492.532 221.817 494.232 223.572 496.228 224.94C497.97 225.934 499.952 226.432 501.958 226.38C503.217 226.399 504.468 226.181 505.648 225.74C506.654 225.382 507.555 224.777 508.268 223.98C508.91 223.286 509.268 222.376 509.268 221.43C509.27 220.812 509.162 220.199 508.948 219.62C508.721 219.042 508.381 218.515 507.948 218.07C507.439 217.563 506.859 217.132 506.228 216.79C505.451 216.38 504.637 216.046 503.798 215.79C502.745 215.464 501.673 215.207 500.588 215.02C498.869 214.692 497.192 214.176 495.588 213.48C494.256 212.904 493.039 212.091 491.998 211.08C491.061 210.153 490.332 209.039 489.858 207.81C489.382 206.486 489.148 205.087 489.168 203.68C489.136 201.748 489.737 199.859 490.878 198.3C492.076 196.688 493.671 195.414 495.508 194.6C497.563 193.668 499.801 193.203 502.058 193.24C504.68 193.179 507.278 193.755 509.628 194.92C511.769 196.014 513.548 197.706 514.748 199.79L510.678 203.79C509.73 202.176 508.419 200.806 506.848 199.79C505.348 198.859 503.612 198.38 501.848 198.41C500.605 198.384 499.369 198.598 498.208 199.04C497.255 199.414 496.417 200.031 495.778 200.83C495.186 201.6 494.876 202.549 494.898 203.52C494.891 204.225 495.035 204.924 495.318 205.57C495.626 206.213 496.077 206.778 496.638 207.22C497.357 207.771 498.161 208.203 499.018 208.5C500.183 208.925 501.38 209.259 502.598 209.5C504.395 209.877 506.153 210.423 507.848 211.13C509.254 211.709 510.568 212.491 511.748 213.45C512.761 214.269 513.592 215.291 514.188 216.45C514.741 217.558 515.025 218.781 515.018 220.02C515.068 222.193 514.492 224.335 513.358 226.19C512.206 227.949 510.57 229.338 508.648 230.19C506.337 231.164 503.844 231.628 501.338 231.55Z" fill="#F9A11B"/>
<path d="M523.167 231.01V193.73H528.947V231.01H523.167ZM525.687 215.18V209.64H550.187V215.18H525.687ZM547.627 230.99V193.73H553.407V231.01L547.627 230.99Z" fill="#F9A11B"/>
<path d="M579.567 231.55C577.06 231.576 574.575 231.086 572.267 230.11C570.072 229.18 568.086 227.82 566.427 226.11C564.753 224.362 563.444 222.299 562.577 220.04C560.764 215.105 560.764 209.685 562.577 204.75C563.442 202.49 564.751 200.426 566.427 198.68C568.086 196.97 570.072 195.61 572.267 194.68C576.944 192.76 582.189 192.76 586.867 194.68C589.062 195.607 591.049 196.968 592.707 198.68C594.377 200.442 595.685 202.514 596.557 204.78C598.37 209.677 598.37 215.062 596.557 219.96C595.687 222.227 594.379 224.3 592.707 226.06C591.051 227.775 589.064 229.136 586.867 230.06C584.562 231.053 582.077 231.561 579.567 231.55ZM579.567 225.95C581.286 225.979 582.991 225.638 584.567 224.95C586.068 224.292 587.412 223.32 588.507 222.1C589.634 220.839 590.512 219.377 591.097 217.79C592.351 214.296 592.351 210.474 591.097 206.98C590.512 205.39 589.634 203.924 588.507 202.66C587.406 201.446 586.064 200.475 584.567 199.81C582.984 199.143 581.284 198.8 579.567 198.8C577.849 198.8 576.149 199.143 574.567 199.81C573.053 200.468 571.691 201.432 570.567 202.64C569.419 203.876 568.534 205.332 567.967 206.92C567.347 208.673 567.039 210.521 567.057 212.38C567.015 214.81 567.568 217.213 568.667 219.38C569.678 221.353 571.201 223.018 573.077 224.2C575.028 225.393 577.28 226.001 579.567 225.95Z" fill="#F9A11B"/>
<path d="M605.737 231.01V193.73H621.037C622.986 193.71 624.902 194.237 626.567 195.25C629.121 196.864 630.958 199.396 631.702 202.323C632.446 205.251 632.04 208.353 630.567 210.99C629.6 212.692 628.226 214.129 626.567 215.17C624.915 216.217 622.994 216.762 621.037 216.74H611.557V231.01H605.737ZM611.507 211.18H620.877C621.815 211.19 622.732 210.903 623.497 210.36C624.294 209.79 624.945 209.039 625.397 208.17C625.882 207.245 626.129 206.214 626.117 205.17C626.135 204.125 625.887 203.093 625.397 202.17C624.946 201.316 624.294 200.585 623.497 200.04C622.726 199.512 621.812 199.233 620.877 199.24H611.507V211.18Z" fill="#F9A11B"/>
<path d="M18.1272 127.41C21.0311 132.582 25.3153 136.845 30.5016 139.723C35.6878 142.602 41.572 143.982 47.4972 143.71H91.9572C97.9073 144.01 103.823 142.644 109.038 139.764C114.254 136.884 118.562 132.606 121.477 127.41L143.707 88.91C146.016 84.9559 147.454 80.5539 147.923 75.9991C148.392 71.4442 147.882 66.8417 146.427 62.5C145.961 61.0432 145.043 59.7728 143.806 58.8737C142.568 57.9745 141.077 57.4933 139.547 57.5C126.887 57.5 95.6272 57.42 80.7872 57.42C79.8424 57.416 78.9061 57.5993 78.0325 57.9594C77.1589 58.3194 76.3654 58.8491 75.6978 59.5176C75.0301 60.1862 74.5016 60.9805 74.1428 61.8546C73.7839 62.7286 73.6019 63.6651 73.6072 64.61V79.05C73.6072 80.9675 74.3689 82.8065 75.7248 84.1624C77.0807 85.5183 78.9197 86.28 80.8372 86.28H99.2072C100.495 86.2731 101.76 86.6106 102.874 87.2575C103.987 87.9044 104.907 88.8371 105.538 89.9591C106.169 91.0811 106.489 92.3515 106.465 93.6387C106.44 94.9259 106.071 96.1831 105.397 97.28L100.857 104.8C99.0528 107.927 96.4548 110.523 93.3259 112.324C90.1969 114.126 86.6477 115.07 83.0372 115.06H56.2872C52.682 115.059 49.1408 114.107 46.0209 112.3C42.901 110.494 40.3128 107.896 38.5172 104.77L29.7272 89.85C29.0892 88.7651 28.1786 87.8657 27.0858 87.2413C25.9929 86.6168 24.7559 86.2889 23.4972 86.29H7.22721C5.96368 86.2905 4.72235 86.6221 3.62691 87.2518C2.53146 87.8815 1.62017 88.7872 0.983828 89.8788C0.34749 90.9704 0.00833246 92.2097 0.000151586 93.4732C-0.00802929 94.7367 0.315056 95.9803 0.937205 97.08L18.1272 127.41ZM40.6972 35.79C41.937 33.6547 43.7173 31.8836 45.859 30.6548C48.0006 29.4259 50.4281 28.7828 52.8972 28.79H87.1572C89.6241 28.7802 92.0499 29.4224 94.1888 30.6517C96.3276 31.8809 98.1037 33.6535 99.3372 35.79L103.597 42.99C104.229 44.0983 105.143 45.0198 106.246 45.6609C107.349 46.3019 108.601 46.6397 109.877 46.64H126.417C127.685 46.6392 128.931 46.3049 130.029 45.6705C131.128 45.0361 132.04 44.124 132.674 43.0257C133.308 41.9274 133.642 40.6815 133.643 39.4133C133.644 38.145 133.31 36.8989 132.677 35.8L121.677 17C118.693 11.8306 114.4 7.538 109.23 4.55383C104.06 1.56967 98.1963 -0.000901308 92.2272 3.88043e-07H47.7872C41.8181 -0.000901308 35.9539 1.56967 30.7843 4.55383C25.6147 7.538 21.3218 11.8306 18.3372 17L1.0372 46.77C0.396883 47.8689 0.0577704 49.1173 0.0540952 50.3891C0.0504201 51.6609 0.382313 52.9112 1.01627 54.0138C1.65023 55.1164 2.56382 56.0322 3.66485 56.6689C4.76587 57.3056 6.01536 57.6405 7.2872 57.64H23.7572C25.0265 57.6488 26.2756 57.3225 27.3783 56.6939C28.481 56.0653 29.3982 55.1567 30.0372 54.06L40.6972 35.79Z" fill="#F9A11B"/>
<path d="M279.837 141.65C282.676 146.524 284.184 152.059 284.21 157.7C284.237 163.341 282.78 168.889 279.987 173.79L257.337 213.54C254.556 218.438 250.531 222.516 245.669 225.361C240.807 228.205 235.28 229.716 229.647 229.74L183.987 229.95C178.353 229.98 172.81 228.522 167.92 225.723C163.029 222.924 158.965 218.884 156.137 214.01L133.137 174.48C130.301 169.601 128.795 164.063 128.769 158.42C128.743 152.777 130.197 147.225 132.987 142.32L155.637 102.58C158.41 97.6612 162.427 93.5573 167.284 90.6791C172.142 87.8008 177.671 86.2493 183.317 86.18H228.977C234.61 86.1515 240.151 87.6104 245.039 90.4093C249.927 93.2082 253.99 97.2478 256.817 102.12L279.837 141.65ZM253.167 201.09V114.9C253.167 112.995 252.411 111.167 251.065 109.819C249.719 108.471 247.892 107.713 245.987 107.71H231.627C229.722 107.71 227.895 108.466 226.547 109.812C225.199 111.159 224.44 112.985 224.437 114.89V136.44C224.44 137.384 224.256 138.318 223.896 139.191C223.536 140.063 223.007 140.856 222.34 141.523C221.673 142.19 220.88 142.719 220.008 143.079C219.136 143.439 218.201 143.623 217.257 143.62H195.707C194.764 143.623 193.829 143.439 192.956 143.079C192.084 142.719 191.292 142.19 190.624 141.523C189.957 140.856 189.428 140.063 189.068 139.191C188.708 138.318 188.525 137.384 188.527 136.44V114.9C188.527 110.99 185.977 107.71 182.417 107.71H166.957C166.014 107.706 165.08 107.889 164.208 108.249C163.336 108.608 162.544 109.137 161.878 109.805C161.212 110.473 160.686 111.266 160.328 112.139C159.971 113.012 159.791 113.947 159.797 114.89V201.09C159.792 202.033 159.974 202.969 160.332 203.842C160.69 204.714 161.218 205.508 161.885 206.175C162.552 206.843 163.344 207.372 164.216 207.731C165.089 208.091 166.024 208.274 166.967 208.27H181.357C183.261 208.267 185.085 207.51 186.431 206.164C187.777 204.818 188.535 202.993 188.537 201.09V179.54C188.535 178.596 188.718 177.661 189.078 176.789C189.438 175.917 189.967 175.124 190.634 174.457C191.302 173.79 192.094 173.261 192.966 172.901C193.839 172.541 194.774 172.357 195.717 172.36H217.267C218.208 172.356 219.14 172.538 220.01 172.895C220.881 173.252 221.672 173.777 222.339 174.44C223.006 175.103 223.535 175.892 223.897 176.76C224.259 177.628 224.446 178.559 224.447 179.5V201.09C224.445 202.035 224.629 202.971 224.989 203.845C225.35 204.718 225.879 205.512 226.547 206.18C227.215 206.848 228.009 207.378 228.883 207.738C229.756 208.098 230.692 208.283 231.637 208.28H246.037C246.977 208.276 247.908 208.087 248.775 207.723C249.642 207.36 250.429 206.829 251.091 206.162C251.753 205.494 252.277 204.702 252.634 203.832C252.99 202.962 253.171 202.03 253.167 201.09Z" fill="#F9A11B"/>
</svg>
