<svg id="Layer_1" data-name="Layer 1" xmlns="http://www.w3.org/2000/svg" viewBox="0 0 1080 1080"><defs><style>.cls-1{fill:#f9a11b;}</style></defs><title>colored 1</title><path class="cls-1" d="M371.75,561.85l25.81-64.93h13.52l25.62,64.93h-16l-12.39-32.93q-.66-1.95-1.44-4.17c-.53-1.49-1-3-1.54-4.64s-1-3.15-1.4-4.64-.81-2.87-1.12-4.17l2.7-.09c-.37,1.54-.77,3.06-1.21,4.54s-.9,3-1.39,4.45-1,3-1.54,4.41-1.07,2.95-1.63,4.5l-12.3,32.74Zm12.3-12.43,5-12.06H418.9l5,12.06Z"/><path class="cls-1" d="M444.81,561.85V496.92h15.93v50.92h29.07v14Z"/><path class="cls-1" d="M530.06,562.77a37.85,37.85,0,0,1-14.11-2.5,32,32,0,0,1-10.86-7,31,31,0,0,1-7-10.67,36.05,36.05,0,0,1-2.42-13.35,33.73,33.73,0,0,1,2.61-13.36,32.33,32.33,0,0,1,7.31-10.66,33.09,33.09,0,0,1,11.19-7.05,39,39,0,0,1,14.21-2.5,36.34,36.34,0,0,1,18.87,5.19,27.15,27.15,0,0,1,6.56,5.47l-9.78,10.2a27.78,27.78,0,0,0-7.22-5,20.4,20.4,0,0,0-8.71-1.81,18.79,18.79,0,0,0-7.41,1.44,17.89,17.89,0,0,0-6,4.08,18.47,18.47,0,0,0-4,6.22,20.88,20.88,0,0,0-1.4,7.74,19.47,19.47,0,0,0,1.49,7.7,18.86,18.86,0,0,0,4.15,6.16,19.09,19.09,0,0,0,6.19,4.13,19.56,19.56,0,0,0,7.64,1.49,15.78,15.78,0,0,0,5.36-.89,14.75,14.75,0,0,0,4.38-2.41,11.07,11.07,0,0,0,3-3.61,9.75,9.75,0,0,0,1.07-4.5v-2.41l2,3.15H529.51V525.49h30.65a21.57,21.57,0,0,1,.28,2.78c.06,1.18.11,2.31.14,3.39s0,1.93,0,2.55a28.44,28.44,0,0,1-2.29,11.54,26.49,26.49,0,0,1-6.42,9,29.71,29.71,0,0,1-9.74,5.89A34.44,34.44,0,0,1,530.06,562.77Z"/><path class="cls-1" d="M572.55,561.85V496.92h15.94v64.93Zm6.34-25.23V522.34h42.58v14.28Zm34.2,25.23V496.92H629v64.93Z"/><path class="cls-1" d="M644,561.85V548.49h11V510.28H644V496.92H682v13.36H671v38.21h11v13.36Z"/><path class="cls-1" d="M694.43,561.85V551.27l34.85-46.09,5.41,6.21H696.85V496.92h49.2V507.4l-34.57,46.19-5.59-5.66h41.19v13.92Z"/><path class="cls-1" d="M758.07,561.85V551.27l34.85-46.09,5.41,6.21H760.5V496.92h49.2V507.4l-34.57,46.19-5.6-5.66h41.19v13.92Z"/><path class="cls-1" d="M816.12,561.85l25.82-64.93h13.51l25.62,64.93H865l-12.39-32.93c-.43-1.3-.92-2.69-1.44-4.17s-1-3-1.54-4.64-1-3.15-1.4-4.64-.81-2.87-1.12-4.17l2.71-.09c-.38,1.54-.78,3.06-1.22,4.54s-.9,3-1.39,4.45-1,3-1.54,4.41-1.07,2.95-1.63,4.5l-12.3,32.74Zm12.3-12.43,5-12.06h29.81l5,12.06Z"/><path class="cls-1" d="M897.47,561.85l-19.66-64.93H894l9.88,34.13c.56,2,1,4,1.4,6.08s.68,4,.93,5.75.4,3.14.46,4.13l-2.14.09q.66-3.52,1-6.21c.24-1.8.56-3.48.93-5.06a47.58,47.58,0,0,1,1.4-4.78l9.78-25.69h12.77l9.59,25.69c.75,2,1.35,4,1.82,5.8s.84,3.53,1.12,5.1.51,3.14.7,4.69l-2,.37c.12-1.18.23-2.23.33-3.16s.17-1.84.23-2.73.15-1.83.28-2.79.31-2,.56-3.24.59-2.58,1-4.13l9.69-34h15.94l-19.66,64.93H938l-15.56-37.29,1.77.19L910,561.85Z"/><path class="cls-1" d="M977.23,561.85V548.49h11V510.28h-11V496.92h37.92v13.36h-11v38.21h11v13.36Z"/><path class="cls-1" d="M385,641.83l-11.93-37.28h6.15l7.23,23.33a20.46,20.46,0,0,1,.75,2.77c.21,1.06.42,2.08.61,3.06s.35,1.75.46,2.32l-1.55-.06c.53-1.88.95-3.33,1.25-4.36s.55-1.82.73-2.37.33-1,.48-1.41L395.94,611h5.19l6.53,16.83c.35.85.67,1.69.93,2.53s.51,1.67.73,2.5.44,1.71.69,2.64l-1.39.37c.18-1,.31-1.71.4-2.26s.17-1,.24-1.36.14-.7.22-1,.18-.77.34-1.31.39-1.26.67-2.18l7.12-23.17h6.21l-11.94,37.28h-4L398,618.51l.48.21-9.52,23.11Z"/><path class="cls-1" d="M445.76,642.37a18.3,18.3,0,0,1-7.31-1.44,17.79,17.79,0,0,1-5.83-4,18.22,18.22,0,0,1-3.85-6.07,22,22,0,0,1,0-15.29,18.12,18.12,0,0,1,3.85-6.07,17.79,17.79,0,0,1,5.83-4,19.25,19.25,0,0,1,14.61,0,17.69,17.69,0,0,1,5.83,4,18.55,18.55,0,0,1,3.85,6.1,21.71,21.71,0,0,1,0,15.18,18.45,18.45,0,0,1-3.85,6.1,17.57,17.57,0,0,1-5.83,4A18.25,18.25,0,0,1,445.76,642.37Zm0-5.6a12.11,12.11,0,0,0,5-1,11.45,11.45,0,0,0,3.93-2.85,13.45,13.45,0,0,0,2.6-4.31,16.17,16.17,0,0,0,0-10.81,13.5,13.5,0,0,0-2.6-4.32,11.72,11.72,0,0,0-3.93-2.85,12.26,12.26,0,0,0-14,2.83,12.43,12.43,0,0,0-2.59,4.28,15.68,15.68,0,0,0-.91,5.46,14.9,14.9,0,0,0,1.6,7,12.39,12.39,0,0,0,4.42,4.82A11.9,11.9,0,0,0,445.76,636.77Z"/><path class="cls-1" d="M471.92,641.83V604.55h15.95a11.61,11.61,0,0,1,5.91,1.57,12,12,0,0,1,4.31,4.26,11.59,11.59,0,0,1,1.6,6,10.57,10.57,0,0,1-1.6,5.64,12.27,12.27,0,0,1-4.28,4.19,11.62,11.62,0,0,1-5.94,1.57H477.7v14Zm5.78-19.54h10.7a5.14,5.14,0,0,0,2.78-.77,5.34,5.34,0,0,0,1.93-2.14,6.5,6.5,0,0,0,.7-3,5.92,5.92,0,0,0-3.35-5.49,7.8,7.8,0,0,0-3.56-.8h-9.2Zm16.48,19.54L484.66,625l5.94-1.33,10.59,18.22Z"/><path class="cls-1" d="M509.11,641.83V604.55h5.78v37.28Zm4.82-11.29-.33-6.44,19.64-19.55h7.6Zm20,11.29L519.6,622.77l4.28-3.68,17.28,22.74Z"/><path class="cls-1" d="M559.3,642.37a17.4,17.4,0,0,1-8.11-1.82,16.57,16.57,0,0,1-6-5.43l4-4.52a18.06,18.06,0,0,0,5,5.16,11,11,0,0,0,5.73,1.44,10.1,10.1,0,0,0,3.69-.64,6.38,6.38,0,0,0,2.62-1.76,3.75,3.75,0,0,0,1-2.55,5.14,5.14,0,0,0-.32-1.81,4.65,4.65,0,0,0-1-1.55,7.48,7.48,0,0,0-1.72-1.28,13.86,13.86,0,0,0-2.43-1,25.32,25.32,0,0,0-3.21-.77,23.74,23.74,0,0,1-5-1.54,12,12,0,0,1-3.59-2.4,9.32,9.32,0,0,1-2.14-3.27,11.73,11.73,0,0,1-.69-4.13,8.87,8.87,0,0,1,1.71-5.38,11.65,11.65,0,0,1,4.63-3.7,15.26,15.26,0,0,1,6.55-1.36,16.19,16.19,0,0,1,7.57,1.68,12.35,12.35,0,0,1,5.11,4.87l-4.06,4a12,12,0,0,0-3.83-4,9.19,9.19,0,0,0-5-1.38,9.67,9.67,0,0,0-3.64.63,5.86,5.86,0,0,0-2.43,1.79,4.26,4.26,0,0,0-.88,2.69,5,5,0,0,0,.42,2.05,4.68,4.68,0,0,0,1.32,1.65,8.47,8.47,0,0,0,2.38,1.28,23.77,23.77,0,0,0,3.58,1,29.27,29.27,0,0,1,5.25,1.63,15.6,15.6,0,0,1,3.9,2.32,9.35,9.35,0,0,1,2.44,3,7.88,7.88,0,0,1,.83,3.57,11.32,11.32,0,0,1-1.66,6.17,10.91,10.91,0,0,1-4.71,4A17.41,17.41,0,0,1,559.3,642.37Z"/><path class="cls-1" d="M581.13,641.83V604.55h5.78v37.28ZM583.65,626v-5.54h24.5V626Zm21.94,15.81V604.55h5.77v37.28Z"/><path class="cls-1" d="M637.53,642.37a18.25,18.25,0,0,1-7.3-1.44,17.83,17.83,0,0,1-5.84-4,18.22,18.22,0,0,1-3.85-6.07,22.17,22.17,0,0,1,0-15.29,18.12,18.12,0,0,1,3.85-6.07,17.83,17.83,0,0,1,5.84-4,19.22,19.22,0,0,1,14.6,0,17.73,17.73,0,0,1,5.84,4,18.55,18.55,0,0,1,3.85,6.1,21.86,21.86,0,0,1,0,15.18,18.45,18.45,0,0,1-3.85,6.1,17.61,17.61,0,0,1-5.84,4A18.25,18.25,0,0,1,637.53,642.37Zm0-5.6a12,12,0,0,0,5-1,11.49,11.49,0,0,0,3.94-2.85,13.43,13.43,0,0,0,2.59-4.31,16,16,0,0,0,0-10.81,13.48,13.48,0,0,0-2.59-4.32,11.76,11.76,0,0,0-3.94-2.85,12.88,12.88,0,0,0-10,0,12,12,0,0,0-4,2.83,12.45,12.45,0,0,0-2.6,4.28,15.68,15.68,0,0,0-.91,5.46,14.91,14.91,0,0,0,1.61,7,12.37,12.37,0,0,0,4.41,4.82A11.93,11.93,0,0,0,637.53,636.77Z"/><path class="cls-1" d="M663.7,641.83V604.55H679a10.43,10.43,0,0,1,5.53,1.52,11.81,11.81,0,0,1,4,15.74,11.85,11.85,0,0,1-4,4.18,10.12,10.12,0,0,1-5.53,1.57h-9.48v14.27ZM669.47,622h9.37a4.45,4.45,0,0,0,2.62-.82,6.23,6.23,0,0,0,1.9-2.19,6.31,6.31,0,0,0,.72-3,6.17,6.17,0,0,0-.72-3,5.94,5.94,0,0,0-1.9-2.13,4.58,4.58,0,0,0-2.62-.8h-9.37Z"/><path class="cls-1" d="M76.09,538.23a32,32,0,0,0,29.37,16.3h44.46a32,32,0,0,0,29.52-16.3l22.23-38.5a32.13,32.13,0,0,0,2.72-26.41,7.19,7.19,0,0,0-6.88-5c-12.66,0-43.92-.08-58.76-.08a7.15,7.15,0,0,0-7.18,7.19v14.44a7.23,7.23,0,0,0,7.23,7.23h18.37a7.22,7.22,0,0,1,6.19,11l-4.54,7.52A20.51,20.51,0,0,1,141,525.88H114.25a20.5,20.5,0,0,1-17.77-10.29l-8.79-14.92a7.22,7.22,0,0,0-6.23-3.56H65.19A7.23,7.23,0,0,0,58.9,507.9Zm22.57-91.62a14.06,14.06,0,0,1,12.2-7h34.26a14,14,0,0,1,12.18,7l4.26,7.2a7.23,7.23,0,0,0,6.28,3.65h16.54a7.23,7.23,0,0,0,6.26-10.84l-11-18.8a34,34,0,0,0-29.45-17H105.75a34,34,0,0,0-29.45,17L59,457.59a7.23,7.23,0,0,0,6.25,10.87H81.72A7.21,7.21,0,0,0,88,464.88Z"/><path class="cls-1" d="M337.8,552.47a32.19,32.19,0,0,1,.15,32.14L315.3,624.36a32,32,0,0,1-27.69,16.2l-45.66.21a32,32,0,0,1-27.85-15.94l-23-39.53a32.26,32.26,0,0,1-.15-32.16l22.65-39.74A32.23,32.23,0,0,1,241.28,497h45.66a32,32,0,0,1,27.84,15.94Zm-26.67,59.44V525.72a7.19,7.19,0,0,0-7.18-7.19H289.59a7.19,7.19,0,0,0-7.19,7.18v21.55a7.16,7.16,0,0,1-7.18,7.18H253.67a7.16,7.16,0,0,1-7.18-7.18V525.72c0-3.91-2.55-7.19-6.11-7.19H224.92a7.13,7.13,0,0,0-7.16,7.18v86.2a7.14,7.14,0,0,0,7.17,7.18h14.39a7.19,7.19,0,0,0,7.18-7.18V590.36a7.16,7.16,0,0,1,7.18-7.18h21.55a7.15,7.15,0,0,1,7.18,7.14v21.59a7.17,7.17,0,0,0,7.19,7.19H304A7.16,7.16,0,0,0,311.13,611.91Z"/></svg>